# xmcd
#
# Track frame offsets:
#	150
#	21273
#	38997
#	62019
#	79778
#	99463
#	117386
#	135402
#	151992
#	168860
#	185266
#	201706
#	222830
#
# Disc length: 3194 seconds
#
# Revision: 1
# Processed by: cddbd v1.5.1PL0 Copyright (c) Steve Scherf et al.
# Submitted via: EasyCDDAExtractor 6.5.0.1
#
DISCID=b00c780d
DTITLE=JULIAN - LA CABAÑA
DYEAR=2005
DGENRE=Acapella
TTITLE0=LA CABAÑA
TTITLE1=LA CITA
TTITLE2=POR ESO ESTA CONMIGO
TTITLE3=SIMPLEMENTE AMIGOS
TTITLE4=MI HISTORIA ENTRE TUS DEDOS
TTITLE5=TU ME RECORDARAS
TTITLE6=OLVIDARLA
TTITLE7=Y TE VI
TTITLE8=LA MENOR
TTITLE9=AL QUERIDA
TTITLE10=EL LICOR
TTITLE11=LA CABAÑA (VERSION LAIRA LAIRA)
TTITLE12=LA QUERIDA TIPICA
EXTD=
EXTT0=
EXTT1=
EXTT2=
EXTT3=
EXTT4=
EXTT5=
EXTT6=
EXTT7=
EXTT8=
EXTT9=
EXTT10=
EXTT11=
EXTT12=
PLAYORDER=
